# xmcd
#
# Track frame offsets: 
#        150
#        23535
#        58327
#        82880
#
# Disc length: 1376 seconds
#
# Revision: 0
# Processed by: cddbd v1.5.2PL0 Copyright (c) Steve Scherf et al.
# Submitted via: ExactAudioCopy v0.99pb4
#
DISCID=25055e04
DTITLE=Various Artist - Probe Mission 2
DYEAR=1993
DGENRE=Electronic
TTITLE0=Public Energy - Three O' Three 
TTITLE1=UP! - Spiritual High 
TTITLE2=Deko! - Panic 
TTITLE3=DBX - Annexia 
EXTD=
EXTT0=
EXTT1=
EXTT2=
EXTT3=
PLAYORDER=
